Coordinates
version=1
nRows=8
nColumns=40
inDegrees=yes

Units are S.I. units (second, meters, Newtons, ...)
Angles are in degrees.

endheader
time	pelvis_tilt	pelvis_list	pelvis_rotation	pelvis_tx	pelvis_ty	pelvis_tz	hip_flexion_r	hip_adduction_r	hip_rotation_r	knee_angle_r	knee_angle_r_beta	ankle_angle_r	subtalar_angle_r	mtp_angle_r	hip_flexion_l	hip_adduction_l	hip_rotation_l	knee_angle_l	knee_angle_l_beta	ankle_angle_l	subtalar_angle_l	mtp_angle_l	lumbar_extension	lumbar_bending	lumbar_rotation	arm_flex_r	arm_add_r	arm_rot_r	elbow_flex_r	pro_sup_r	wrist_flex_r	wrist_dev_r	arm_flex_l	arm_add_l	arm_rot_l	elbow_flex_l	pro_sup_l	wrist_flex_l	wrist_dev_l
     47.94000000	     -8.08749141	     -2.23101262	    -11.79444937	      0.96344025	      0.91883864	      0.52645699	     23.77733086	      3.73656010	     -0.26578689	     26.27788248	     26.27788248	     11.26972975	     -1.96490905	     -0.26580854	     -2.28988731	     -5.62028109	    -12.56606938	     13.70489752	     13.70489752	     18.41429815	     -8.33890337	      1.99433439	     -8.54742038	      8.30336259	      0.76769456	     -7.25219247	    -13.22656208	    -19.61001623	     29.05436222	     46.96276274	      0.00000000	      0.00000000	     36.38268765	    -19.58402495	    -11.56190079	     77.09401119	     48.38089410	      0.00000000	      0.00000000
     47.96285714	     -8.11754864	     -2.36391648	    -11.33381776	      0.96488571	      0.91953736	      0.53072855	     23.12110037	      4.01354778	     -0.57037328	     25.92172660	     25.92172660	     11.60026430	     -2.12722192	      0.15151949	     -2.39209296	     -6.20063036	    -12.64375336	     14.19189484	     14.19189484	     18.20130548	     -7.73134408	      1.72868906	     -8.42180990	      8.29701752	      0.58689740	     -6.83337982	    -13.65384391	    -19.73874084	     29.20678093	     46.96358635	      0.00000000	      0.00000000	     35.19089268	    -18.67650294	    -11.22719594	     76.05781776	     48.32589150	      0.00000000	      0.00000000
     47.98571429	     -8.08367074	     -2.52148386	    -10.86646720	      0.96602525	      0.92009872	      0.53493680	     22.49422171	      4.32090041	     -0.82858641	     25.74353683	     25.74353683	     12.25528153	     -2.29069716	      1.33543588	     -2.37820877	     -6.89193256	    -12.92341373	     15.00960890	     15.00960890	     18.06239654	     -6.78165647	      1.11720741	     -8.35829247	      8.26088691	      0.81614347	     -6.63275312	    -14.00318735	    -20.08007636	     29.45225180	     46.94282966	      0.00000000	      0.00000000	     34.41642386	    -17.46710003	    -10.47273480	     73.96544227	     48.20410803	      0.00000000	      0.00000000
     48.00857143	     -7.96372103	     -2.54951648	    -10.37617987	      0.96692837	      0.92055495	      0.53876742	     21.83465964	      4.44536711	     -1.09196777	     25.56381648	     25.56381648	     12.62654049	     -2.45763772	      1.32634094	     -2.38648244	     -7.30727899	    -12.54071020	     15.80343095	     15.80343095	     17.84914015	     -6.81276526	      0.98507095	     -8.40764487	      8.05732674	      0.68628154	     -6.04625825	    -14.26881531	    -20.11179097	     29.75741835	     46.93528029	      0.00000000	      0.00000000	     32.72377945	    -16.53428641	    -10.02692945	     73.10880293	     48.14474499	      0.00000000	      0.00000000
     48.03142857	     -7.98927159	     -2.78628822	     -9.79068615	      0.96728786	      0.92053918	      0.54254933	     21.29216171	      4.83666452	     -1.41292580	     25.30725970	     25.30725970	     12.94072519	     -2.91626305	      1.50950740	     -1.70804941	     -8.18513667	    -12.18346537	     17.61070241	     17.61070241	     17.68693525	     -6.67229490	      0.00488248	     -8.25083097	      8.12669988	      0.31478204	     -5.33803698	    -14.52785780	    -20.03372117	     30.33880782	     46.89339580	      0.00000000	      0.00000000	     31.30858717	    -15.97265739	     -9.30905966	     70.55623907	     48.02886813	      0.00000000	      0.00000000
     48.05428571	     -7.87316693	     -2.95841412	     -9.19709555	      0.96751105	      0.92044244	      0.54609422	     20.68685088	      5.11626125	     -1.72494788	     25.17774869	     25.17774869	     13.33328382	     -3.25349339	      1.48922506	     -1.02756352	     -8.91850538	    -11.45881738	     19.61682441	     19.61682441	     17.46284230	     -7.04728723	     -0.76247847	     -8.30433503	      8.07112700	      0.16540340	     -4.54782968	    -14.72113947	    -19.95549044	     30.81644644	     46.86751630	      0.00000000	      0.00000000	     29.50680493	    -15.12682989	     -8.72148512	     68.86610993	     47.94135450	      0.00000000	      0.00000000
     48.07714286	     -7.70964613	     -3.13741570	     -8.57822315	      0.96746589	      0.92001646	      0.54950272	     20.16141786	      5.44217072	     -1.86621024	     25.25357334	     25.25357334	     13.77543512	     -3.96545231	      1.48546349	     -0.14348694	     -9.71877874	    -10.72383215	     21.98795941	     21.98795941	     16.45900898	     -7.63690321	     -3.57286154	     -8.31432159	      8.02558844	      0.46097776	     -4.05257498	    -14.99864146	    -19.27174561	     31.57281338	     46.75731289	      0.00000000	      0.00000000	     28.47480865	    -14.01476255	     -7.42126902	     64.92084192	     47.75324691	      0.00000000	      0.00000000
     48.10000000	     -7.54139944	     -3.27551183	     -7.88379275	      0.96713131	      0.91934120	      0.55263796	     19.73865519	      5.67346545	     -2.16599128	     25.46694183	     25.46694183	     14.23363687	     -4.55746574	      1.36304758	      1.20326854	    -10.47322615	     -9.56587527	     25.15751840	     25.15751840	     16.00223926	     -8.45270597	     -4.73167681	     -8.38896998	      7.91471066	      0.14390986	     -2.85577151	    -15.04053433	    -19.15309428	     32.29332541	     46.72156286	      0.00000000	      0.00000000	     26.25437523	    -13.34013831	     -6.89075902	     62.96272903	     47.66215461	      0.00000000	      0.00000000
